<svg xmlns="http://www.w3.org/2000/svg" width="current" height="current" viewBox="0 0 48.321 48.25">
    <defs>
        <style>
            .cls-1{fill:#222}.cls-2{fill:#449CE8;stroke:#449CE8;stroke-width:.5px}
        </style>
    </defs>
    <g id="floating02_icon" transform="translate(-153.077 -44.426)">
        <g id="패스_3362" transform="translate(153.077 44.426)">
            <path id="패스_3366" d="M178.324 88.5H154a.922.922 0 0 1-.923-.921V45.347a.922.922 0 0 1 .923-.921h22.523a.924.924 0 0 1 .646.262l12.425 12.146a.92.92 0 0 1 .277.658v8.969a.923.923 0 0 1-1.846 0V57.88l-11.878-11.612h-21.224v40.387h23.4a.921.921 0 1 1 0 1.842z" class="cls-1" transform="translate(-153.077 -44.426)"/>
        </g>
        <g id="패스_3363" transform="translate(175.595 45.349)">
            <path id="패스_3367" d="M190.824 58.525H178.4a.923.923 0 0 1-.923-.923V45.426h1.846v11.253h11.5z" class="cls-1" transform="translate(-177.474 -45.426)"/>
        </g>
        <g id="패스_3364" transform="translate(173.961 65.655)">
            <path id="패스_3368" d="M189.083 94.313a13.385 13.385 0 1 1 5.182-25.731.923.923 0 1 1-.714 1.7 11.539 11.539 0 1 0 6.936 8.84.923.923 0 0 1 1.824-.288 13.385 13.385 0 0 1-11.13 15.31 13.506 13.506 0 0 1-2.098.169z" class="cls-2" transform="translate(-175.705 -67.542)"/>
        </g>
        <g id="패스_3365" transform="translate(182.5 67.713)">
            <path id="패스_3369" d="M189.784 84.191a.923.923 0 0 1-.644-.262l-3.906-3.8a.923.923 0 0 1 1.289-1.322l3.258 3.174L201.963 70a.923.923 0 1 1 1.294 1.316l-12.826 12.61a.922.922 0 0 1-.647.265z" class="cls-2" transform="translate(-184.955 -69.736)"/>
        </g>
    </g>
</svg>
