<svg xmlns="http://www.w3.org/2000/svg" width="current" height="current" viewBox="0 0 46 46">
    <g>
        <path fill="#222" d="M318.753 237.834H274.5a.874.874 0 0 1-.873-.873v-44.254a.874.874 0 0 1 .873-.873h44.253a.874.874 0 0 1 .873.873v44.253a.874.874 0 0 1-.873.874zm-43.38-1.747h42.506v-42.506h-42.506z" transform="translate(-273.626 -191.834)"/>
    </g>
    <g>
        <g>
            <path fill="#449CE8" d="M288.584 201.727h6.946c4.689 0 8.289 1.629 8.289 6.63 0 4.84-3.63 7.005-8.175 7.005h-2.834v7.517h-4.229zm6.775 10.29c2.916 0 4.315-1.23 4.315-3.659 0-2.459-1.544-3.286-4.457-3.286h-2.407v6.942z" transform="translate(16.762 11.705) translate(-288.581 -201.727)"/>
        </g>
    </g>
</svg>
